<svg id="visual" viewBox="0 0 100 100" width="100" height="100" xmlns="http://www.w3.org/2000/svg" xmlns:xlink="http://www.w3.org/1999/xlink" version="1.1"><g transform="translate(54.08473537935215 47.32421098636899)"><path d="M31.9 -39.3C37 -33.7 33.9 -19.6 33.6 -7.9C33.2 3.7 35.7 12.9 33.4 21.6C31.1 30.3 24.1 38.7 14.7 43.4C5.2 48.2 -6.6 49.5 -17.1 46.1C-27.6 42.7 -36.8 34.6 -40.6 24.9C-44.4 15.2 -42.9 4 -41.2 -7.6C-39.6 -19.2 -37.8 -31 -30.9 -36.3C-24 -41.6 -12 -40.3 0.7 -41.1C13.4 -42 26.8 -44.9 31.9 -39.3" fill="#BB004B"></path></g></svg>