<svg id="visual" viewBox="0 0 1920 600" width="1920" height="600" xmlns="http://www.w3.org/2000/svg" xmlns:xlink="http://www.w3.org/1999/xlink" version="1.1"><rect x="0" y="0" width="1920" height="600" fill="#001220"></rect><path d="M0 461L45.7 455.3C91.3 449.7 182.7 438.3 274.2 434C365.7 429.7 457.3 432.3 548.8 447C640.3 461.7 731.7 488.3 823 488.8C914.3 489.3 1005.7 463.7 1097 453.7C1188.3 443.7 1279.7 449.3 1371.2 453.2C1462.7 457 1554.3 459 1645.8 453.7C1737.3 448.3 1828.7 435.7 1874.3 429.3L1920 423L1920 601L1874.3 601C1828.7 601 1737.3 601 1645.8 601C1554.3 601 1462.7 601 1371.2 601C1279.7 601 1188.3 601 1097 601C1005.7 601 914.3 601 823 601C731.7 601 640.3 601 548.8 601C457.3 601 365.7 601 274.2 601C182.7 601 91.3 601 45.7 601L0 601Z" fill="#fa7268"></path><path d="M0 551L45.7 546.2C91.3 541.3 182.7 531.7 274.2 532.8C365.7 534 457.3 546 548.8 536.7C640.3 527.3 731.7 496.7 823 481.3C914.3 466 1005.7 466 1097 477.3C1188.3 488.7 1279.7 511.3 1371.2 524.2C1462.7 537 1554.3 540 1645.8 536.5C1737.3 533 1828.7 523 1874.3 518L1920 513L1920 601L1874.3 601C1828.7 601 1737.3 601 1645.8 601C1554.3 601 1462.7 601 1371.2 601C1279.7 601 1188.3 601 1097 601C1005.7 601 914.3 601 823 601C731.7 601 640.3 601 548.8 601C457.3 601 365.7 601 274.2 601C182.7 601 91.3 601 45.7 601L0 601Z" fill="#dc4658"></path><path d="M0 517L45.7 516.5C91.3 516 182.7 515 274.2 519.8C365.7 524.7 457.3 535.3 548.8 535.2C640.3 535 731.7 524 823 519.5C914.3 515 1005.7 517 1097 528.2C1188.3 539.3 1279.7 559.7 1371.2 572.5C1462.7 585.3 1554.3 590.7 1645.8 585.2C1737.3 579.7 1828.7 563.3 1874.3 555.2L1920 547L1920 601L1874.3 601C1828.7 601 1737.3 601 1645.8 601C1554.3 601 1462.7 601 1371.2 601C1279.7 601 1188.3 601 1097 601C1005.7 601 914.3 601 823 601C731.7 601 640.3 601 548.8 601C457.3 601 365.7 601 274.2 601C182.7 601 91.3 601 45.7 601L0 601Z" fill="#bb004b"></path></svg>